<?xml version="1.0" encoding="utf-8"?><!DOCTYPE svg PUBLIC "-//W3C//DTD SVG 1.1//EN" "http://www.w3.org/Graphics/SVG/1.1/DTD/svg11.dtd"><svg version="1.1" xmlns="http://www.w3.org/2000/svg" xmlns:xlink="http://www.w3.org/1999/xlink" width="32" height="32" viewBox="0 0 32 32" data-tags="phone,contact"><g fill="#444" transform="scale(0.03125 0.03125)"><path d="M68.032 38.016c40.896-40.992 164.512-47.84 165.44-26.144 0.928 21.664 111.328 262.112 112.288 283.808 0.96 21.664-72.768 95.584-94.336 117.216-21.376 21.408 144.256 209.056 147.392 212.608 3.52 3.168 190.72 169.184 212.096 147.744 21.568-21.632 95.328-95.52 116.896-94.56 21.632 0.928 261.536 111.584 283.168 112.576 21.632 0.928 14.816 124.8-26.080 165.824-34.976 35.040-216.064 162.272-530.944-64.928-34.528-19.904-89.216-65.568-172.16-148.672-0.032-0.032-0.096-0.096-0.16-0.128-0.064-0.096-0.128-0.128-0.192-0.192s-0.128-0.128-0.192-0.192c-0.032-0.064-0.096-0.128-0.128-0.16-82.88-83.136-128.448-137.984-148.32-172.576-226.656-315.648-99.712-497.184-64.768-532.224z" /></g></svg>